<?xml version="1.0" encoding="utf-8"?>
<!DOCTYPE svg PUBLIC "-//W3C//DTD SVG 1.1//EN" "http://www.w3.org/Graphics/SVG/1.1/DTD/svg11.dtd">
<svg version="1.1" xmlns="http://www.w3.org/2000/svg" xmlns:xlink="http://www.w3.org/1999/xlink" x="0px" y="0px"
	 viewBox="0 0 600 240" enable-background="new 0 0 600 240" xml:space="preserve">
<g id="Celebrate">
	<g fill="white">
		<path d="M47.6,51.8c0-12.7,7.1-15.7,19.1-15.7h15.7c19,0,21.4,4.1,21.3,16.4H90.3v-1.2c0-3.1-2.3-4-6.2-4H69.6
			c-7,0-8.3,3.3-8.3,8.7v4.7c0,6.3,1.3,8.7,7.6,8.7h14.2c6,0,7.8-0.6,7.8-6h13.3v4.1c0,7.3-2.6,13.1-16,13.1H66.7
			c-12,0-19.1-3-19.1-15.7V51.8z"/>
		<path d="M110.7,36.6h47.5v10.1H124v7h32.4v9H124v7h35V80h-48.3V36.6z"/>
		<path d="M165.5,36.6h13.3v32.3h29.9V80h-43.3V36.6z"/>
		<path d="M214.1,36.6h47.5v10.1h-34.2v7h32.4v9h-32.4v7h35V80h-48.3V36.6z"/>
		<path d="M268.8,36.6h38.3c10.6,0,15.8,2.9,15.8,11.4c0,7.4-2.7,8.9-6.4,10v0.2c5.8,0.7,8,3.8,8,10.4c0,9.5-5.6,11.5-13.3,11.5
			h-42.4V36.6z M282.2,53.8h23.6c2.5,0,3.9-0.9,3.9-3.4c0-2.5-1.4-3.4-3.9-3.4h-23.6V53.8z M282.2,69.6H306c2.9,0,4.8-0.7,4.8-3.2
			c0-2.9-1.9-3.6-4.8-3.6h-23.9V69.6z"/>
		<path d="M331,36.6h40.2c10.3,0,13,5.1,13,12.9v2.8c0,5.8-1.3,9.2-7.4,10.7V63c4,0.7,7.3,2.5,7.3,9.6V80h-13.3v-5.2
			c0-4.6-1.3-6.1-5.5-6.1h-20.9V80H331V36.6z M344.3,57.9h22c3.6,0,4.9-1.4,4.9-4.6v-1.4c0-3.8-1.9-4.6-6.1-4.6h-20.8V57.9z"/>
		<path d="M412.6,36.6H430L453.8,80H439l-4.1-7.7h-27L404,80h-14.9L412.6,36.6z M412.9,63h17l-8.6-16.3L412.9,63z"/>
		<path d="M447.9,36.6h50.8v10.8H480V80h-13.3V47.4h-18.7V36.6z"/>
		<path d="M504.1,36.6h47.5v10.1h-34.2v7h32.4v9h-32.4v7h35V80h-48.3V36.6z"/>
		<path d="M113.7,116.6h13l9.2,31.9h0.1l11-31.9h12.4l11,31.9h0.1l9.2-31.9h13L178.8,160h-15.3l-10.1-28.7h-0.1L143.1,160h-15.3
			L113.7,116.6z"/>
		<path d="M198.4,116.6h13.3V160h-13.3V116.6z"/>
		<path d="M217.4,116.6h50.8v10.8h-18.7V160h-13.3v-32.6h-18.7V116.6z"/>
		<path d="M273.6,116.6h13.3V132H315v-15.5h13.3V160H315v-16.4h-28.1V160h-13.3V116.6z"/>
		<path d="M366.9,116.6h13.3v25.1c0,5.5,2,7.7,7.4,7.7h13.2c5.5,0,7.4-2.2,7.4-7.7v-25.1h13.3v28c0,10.8-5.6,16-17.8,16h-19.1
			c-12.2,0-17.8-5.2-17.8-16V116.6z"/>
		<path d="M428.2,145.8h13.3c0.1,4.6,1.9,5,5.8,5h16.3c2.8,0,5.7-0.3,5.7-3.7c0-3.8-1.6-4-18.7-4c-20,0-22.3-2.4-22.3-13.1
			c0-7.9,0.7-13.9,17.5-13.9h18.6c15.4,0,16.8,5.2,16.8,12.8v1.4h-13.3c0-3.2-0.4-4.5-6.5-4.5h-14.8c-3,0-5,1-5,3.4
			c0,3.8,1.6,3.9,15.9,3.8c20.7-0.1,25.5,1.2,25.5,13.9c0,11.7-4,13.6-21.7,13.6h-16.1c-12.1,0-17-2.3-17-11.7V145.8z"/>
	</g>
</g>
</svg>
