<?xml version="1.0" encoding="utf-8"?>
<!DOCTYPE svg PUBLIC "-//W3C//DTD SVG 1.1//EN" "http://www.w3.org/Graphics/SVG/1.1/DTD/svg11.dtd">
<svg version="1.1" xmlns="http://www.w3.org/2000/svg" xmlns:xlink="http://www.w3.org/1999/xlink" x="0px" y="0px"
	 viewBox="0 0 600 240" enable-background="new 0 0 600 240" xml:space="preserve">
<g id="Pilot_is_4">
	<g fill="white">
		<path d="M78.9,36.6h36.3c12.7,0,15.7,6.4,15.7,14.9v3.7c0,6.5-2.8,13.9-12.2,13.9H92.2V80H78.9V36.6z M92.2,58.3h20.7
			c3.1,0,4.3-2,4.3-4.6V52c0-2.9-1.4-4.6-5.5-4.6H92.2V58.3z"/>
		<path d="M137.4,36.6h13.3V80h-13.3V36.6z"/>
		<path d="M158.3,36.6h13.3v32.3h29.9V80h-43.3V36.6z"/>
		<path d="M206.4,51.8c0-12.7,7.1-15.7,19.1-15.7h21.4c12,0,19.1,3,19.1,15.7v13c0,12.7-7.1,15.7-19.1,15.7h-21.4
			c-12,0-19.1-3-19.1-15.7V51.8z M220.1,60.6c0,6.3,1.3,8.7,7.6,8.7h17c6.3,0,7.6-2.4,7.6-8.7v-4.7c0-5.4-1.3-8.7-8.3-8.7h-15.6
			c-7,0-8.3,3.3-8.3,8.7V60.6z"/>
		<path d="M271,36.6h50.8v10.8H303V80h-13.3V47.4H271V36.6z"/>
		<path d="M357.9,36.6h13.3V80h-13.3V36.6z"/>
		<path d="M378.2,65.8h13.3c0.1,4.6,1.9,5,5.8,5h16.3c2.8,0,5.7-0.3,5.7-3.7c0-3.8-1.6-4-18.7-4c-20,0-22.3-2.4-22.3-13.1
			c0-7.9,0.7-13.9,17.5-13.9h18.6c15.4,0,16.8,5.2,16.8,12.8v1.4h-13.3c0-3.2-0.4-4.5-6.5-4.5h-14.8c-3,0-5,1-5,3.4
			c0,3.8,1.6,3.9,15.9,3.8c20.7-0.1,25.5,1.2,25.5,13.9c0,11.7-4,13.6-21.7,13.6h-16.1c-12.1,0-17-2.3-17-11.7V65.8z"/>
		<path d="M469.5,55.4l31-18.8h15.4v25h6.4v9.7h-6.4V80h-12.6v-8.7h-33.8V55.4z M480,61.5v0.1h23.3V47L480,61.5z"/>
		<path d="M65.5,144.9l-24.1-28.3h16.1l14.6,17.8l14.6-17.8h16.1l-24.1,28.3V160H65.5V144.9z"/>
		<path d="M108,116.6h47.5v10.1h-34.2v7h32.4v9h-32.4v7h35V160H108V116.6z"/>
		<path d="M184.3,116.6h17.3l23.9,43.4h-14.8l-4.1-7.7h-27l-3.9,7.7h-14.9L184.3,116.6z M184.6,143h17l-8.6-16.3L184.6,143z"/>
		<path d="M230.5,116.6h40.2c10.3,0,13,5.1,13,12.9v2.8c0,5.8-1.3,9.2-7.4,10.7v0.1c4,0.7,7.3,2.5,7.3,9.6v7.4h-13.3v-5.2
			c0-4.6-1.3-6.1-5.5-6.1h-20.9V160h-13.3V116.6z M243.8,137.9h22c3.6,0,4.9-1.4,4.9-4.6v-1.4c0-3.8-1.9-4.6-6.1-4.6h-20.8V137.9z"
			/>
		<path d="M290.3,145.8h13.3c0.1,4.6,1.9,5,5.8,5h16.3c2.8,0,5.7-0.3,5.7-3.7c0-3.8-1.6-4-18.7-4c-20,0-22.3-2.4-22.3-13.1
			c0-7.9,0.7-13.9,17.5-13.9h18.6c15.4,0,16.8,5.2,16.8,12.8v1.4h-13.3c0-3.2-0.4-4.5-6.5-4.5h-14.8c-3,0-5,1-5,3.4
			c0,3.8,1.6,3.9,15.9,3.8c20.7-0.1,25.5,1.2,25.5,13.9c0,11.7-4,13.6-21.7,13.6h-16.1c-12.1,0-17-2.3-17-11.7V145.8z"/>
		<path d="M381.9,131.8c0-12.7,7.1-15.7,19.1-15.7h21.4c12,0,19.1,3,19.1,15.7v13c0,12.7-7.1,15.7-19.1,15.7h-21.4
			c-12,0-19.1-3-19.1-15.7V131.8z M395.6,140.6c0,6.3,1.3,8.7,7.6,8.7h17c6.3,0,7.6-2.4,7.6-8.7v-4.7c0-5.4-1.3-8.7-8.3-8.7H404
			c-7,0-8.3,3.3-8.3,8.7V140.6z"/>
		<path d="M448.4,116.6h13.3v32.3h29.9V160h-43.3V116.6z"/>
		<path d="M497.2,116.6h40.2c13.3,0,18,4.4,18,15.1v13.2c0,10.7-4.7,15.1-18,15.1h-40.2V116.6z M510.5,148.8h23.6
			c5.7,0,7.9-1.6,7.9-7.8v-5.9c0-6.2-2.2-7.8-7.9-7.8h-23.6V148.8z"/>
	</g>
</g>
</svg>
