<?xml version="1.0" encoding="utf-8"?>
<!DOCTYPE svg PUBLIC "-//W3C//DTD SVG 1.1//EN" "http://www.w3.org/Graphics/SVG/1.1/DTD/svg11.dtd">
<svg version="1.1" xmlns="http://www.w3.org/2000/svg" xmlns:xlink="http://www.w3.org/1999/xlink" x="0px" y="0px"
	 viewBox="0 0 600 90" enable-background="new 0 0 600 90" xml:space="preserve">
<g id="Saturday">
	<g fill="white">
		<path d="M65.6,65.8h13.3c0.1,4.6,1.9,5,5.8,5H101c2.8,0,5.7-0.3,5.7-3.7c0-3.8-1.6-4-18.7-4c-20,0-22.3-2.4-22.3-13.1
			c0-7.9,0.7-13.9,17.5-13.9h18.6c15.4,0,16.8,5.2,16.8,12.8v1.4h-13.3c0-3.2-0.4-4.5-6.5-4.5H84c-3,0-5,1-5,3.4
			c0,3.8,1.6,3.9,15.9,3.8c20.7-0.1,25.5,1.2,25.5,13.9c0,11.7-4,13.6-21.7,13.6H82.5c-12.1,0-17-2.3-17-11.7V65.8z"/>
		<path d="M146.6,36.6H164L187.9,80H173l-4.1-7.7h-27L138,80h-14.9L146.6,36.6z M146.9,63h17l-8.6-16.3L146.9,63z"/>
		<path d="M182,36.6h50.8v10.8H214V80h-13.3V47.4H182V36.6z"/>
		<path d="M238.2,36.6h13.3v25.1c0,5.5,2,7.7,7.4,7.7h13.2c5.5,0,7.4-2.2,7.4-7.7V36.6h13.3v28c0,10.8-5.6,16-17.8,16H256
			c-12.2,0-17.8-5.2-17.8-16V36.6z"/>
		<path d="M300.2,36.6h40.2c10.3,0,13,5.1,13,12.9v2.8c0,5.8-1.3,9.2-7.4,10.7V63c4,0.7,7.3,2.5,7.3,9.6V80h-13.3v-5.2
			c0-4.6-1.3-6.1-5.5-6.1h-20.9V80h-13.3V36.6z M313.5,57.9h22c3.6,0,4.9-1.4,4.9-4.6v-1.4c0-3.8-1.9-4.6-6.1-4.6h-20.8V57.9z"/>
		<path d="M360.9,36.6h40.2c13.3,0,18,4.4,18,15.1v13.2c0,10.7-4.7,15.1-18,15.1h-40.2V36.6z M374.2,68.8h23.6
			c5.7,0,7.9-1.6,7.9-7.8v-5.9c0-6.2-2.2-7.8-7.9-7.8h-23.6V68.8z"/>
		<path d="M444.7,36.6H462L485.9,80h-14.8l-4.1-7.7h-27L436,80h-14.9L444.7,36.6z M444.9,63h17l-8.6-16.3L444.9,63z"/>
		<path d="M500.4,64.9l-24.1-28.3h16.1L507,54.3l14.6-17.8h16.1l-24.1,28.3V80h-13.3V64.9z"/>
	</g>
</g>
</svg>